<svg width="18" height="18" viewBox="0 0 18 18" fill="none" xmlns="http://www.w3.org/2000/svg">
<path d="M0 4.78827H18V3.41387C18 3.24249 17.861 3.10352 17.6896 3.10352H0.310359C0.138972 3.10352 0 3.24249 0 3.41387V4.78827Z" fill="#73AF00"/>
<path d="M18 4.78711H0V6.4719H18V4.78711Z" fill="#F5F5F5"/>
<path d="M18 6.47461H0V8.1594H18V6.47461Z" fill="#73AF00"/>
<path d="M18 8.1582H0V9.84299H18V8.1582Z" fill="#F5F5F5"/>
<path d="M18 9.8418H0V11.5266H18V9.8418Z" fill="#73AF00"/>
<path d="M18 11.5273H0V13.2121H18V11.5273Z" fill="#F5F5F5"/>
<path d="M0.310359 14.8957H17.6896C17.861 14.8957 18 14.7567 18 14.5853V13.2109H0V14.5853C0 14.7568 0.138972 14.8957 0.310359 14.8957Z" fill="#73AF00"/>
<path d="M0.310359 8.15771H8.68962C8.86101 8.15771 8.99998 8.01874 8.99998 7.84735V3.41387C8.99998 3.24249 8.86101 3.10352 8.68962 3.10352H0.310359C0.138972 3.10352 0 3.24249 0 3.41387V7.84735C0 8.01874 0.138972 8.15771 0.310359 8.15771Z" fill="#FF4B55"/>
<path d="M4.77174 7.75892H4.27136C4.22587 7.75892 4.18513 7.73058 4.16934 7.6879L4.00822 7.25295C3.94533 7.08315 3.91709 6.90244 3.92518 6.72157L3.98129 5.46526C3.98273 5.43337 4.00319 5.40549 4.03318 5.3946C4.08465 5.37586 4.13914 5.414 4.13914 5.46881V6.04091C4.13914 6.0569 4.15211 6.06988 4.16811 6.06988C4.18354 6.06988 4.19627 6.05778 4.19704 6.04235L4.24201 5.13012C4.24384 5.09306 4.27168 5.06255 4.30838 5.05731C4.35388 5.0508 4.39501 5.08515 4.39673 5.13114L4.42777 5.9816C4.42841 5.99868 4.44352 6.01155 4.46047 6.00941C4.47481 6.00761 4.48568 5.99556 4.48596 5.98107L4.50463 5.03604C4.50565 4.98443 4.55641 4.9486 4.60538 4.96492C4.63537 4.97494 4.65611 5.00229 4.65763 5.03386L4.70375 5.98905C4.70424 5.99967 4.71047 6.0092 4.71996 6.01394C4.73915 6.02358 4.76186 6.01004 4.7625 5.98852L4.78563 5.24842C4.78739 5.19252 4.84592 5.15683 4.89641 5.18088C4.92189 5.19301 4.93877 5.21808 4.94042 5.24627L4.99428 6.15464L5.13839 6.575C5.14651 6.59863 5.17966 6.59905 5.18824 6.57563C5.22905 6.46422 5.32169 6.25617 5.47033 6.16455C5.49666 6.14834 5.53041 6.15042 5.55516 6.16898C5.59155 6.1963 5.5958 6.24893 5.56469 6.28208C5.49223 6.35921 5.38659 6.52132 5.39422 6.80633C5.3952 6.84261 5.38469 6.87826 5.36325 6.90754L4.95719 7.46224C4.91655 7.51778 4.89047 7.58265 4.88136 7.65088L4.87953 7.66449C4.87243 7.71856 4.8263 7.75892 4.77174 7.75892Z" fill="#F5F5F5"/>
<path d="M4.52243 3.52788L4.60396 3.77236L4.86165 3.77433C4.88162 3.77447 4.88988 3.79996 4.87382 3.81184L4.6665 3.96491L4.74423 4.21062C4.75024 4.22967 4.72859 4.24542 4.71234 4.23378L4.50267 4.08391L4.293 4.23378C4.27676 4.24538 4.2551 4.22963 4.26112 4.21062L4.33885 3.96491L4.13153 3.81184C4.11546 3.79996 4.12373 3.77447 4.14369 3.77433L4.40139 3.77236L4.48291 3.52788C4.48928 3.50893 4.5161 3.50893 4.52243 3.52788Z" fill="#F5F5F5"/>
<path d="M3.30954 3.87947L3.39107 4.12395L3.64876 4.12592C3.66873 4.12606 3.67699 4.15155 3.66093 4.16343L3.45361 4.3165L3.53134 4.56221C3.53735 4.58126 3.5157 4.59701 3.49945 4.58538L3.28978 4.4355L3.08011 4.58538C3.06387 4.59698 3.04221 4.58123 3.04822 4.56221L3.12595 4.3165L2.91864 4.16343C2.90257 4.15155 2.91083 4.12606 2.9308 4.12592L3.1885 4.12395L3.27002 3.87947C3.27646 3.86049 3.30321 3.86049 3.30954 3.87947Z" fill="#F5F5F5"/>
<path d="M5.76462 3.87947L5.84615 4.12395L6.10384 4.12592C6.12381 4.12606 6.13207 4.15155 6.116 4.16343L5.90869 4.3165L5.98642 4.56221C5.99243 4.58126 5.97077 4.59701 5.95453 4.58538L5.74486 4.4355L5.53519 4.58538C5.51895 4.59698 5.49729 4.58123 5.5033 4.56221L5.58103 4.3165L5.37372 4.16343C5.35765 4.15155 5.36591 4.12606 5.38588 4.12592L5.64358 4.12395L5.7251 3.87947C5.73154 3.86049 5.75829 3.86049 5.76462 3.87947Z" fill="#F5F5F5"/>
<path d="M6.57712 4.80327L6.65865 5.04775L6.91634 5.04972C6.93631 5.04986 6.94457 5.07535 6.9285 5.08723L6.72119 5.2403L6.79892 5.48601C6.80493 5.50506 6.78327 5.52081 6.76703 5.50917L6.55736 5.3593L6.34769 5.50917C6.33145 5.52078 6.30979 5.50503 6.3158 5.48601L6.39353 5.2403L6.18622 5.08723C6.17015 5.07535 6.17841 5.04986 6.19838 5.04972L6.45608 5.04775L6.5376 4.80327C6.54404 4.78433 6.57079 4.78433 6.57712 4.80327Z" fill="#F5F5F5"/>
<path d="M2.43063 4.80327L2.51216 5.04775L2.76986 5.04972C2.78983 5.04986 2.79809 5.07535 2.78202 5.08723L2.5747 5.2403L2.65244 5.48601C2.65845 5.50506 2.63679 5.52081 2.62055 5.50917L2.41088 5.3593L2.20121 5.50917C2.18496 5.52078 2.16331 5.50503 2.16932 5.48601L2.24705 5.2403L2.03973 5.08723C2.02367 5.07535 2.03193 5.04986 2.0519 5.04972L2.30959 5.04775L2.39112 4.80327C2.39748 4.78433 2.42431 4.78433 2.43063 4.80327Z" fill="#F5F5F5"/>
<path d="M6.81149 6.01812L6.89302 6.26259L7.15072 6.26456C7.17069 6.2647 7.17895 6.29019 7.16288 6.30207L6.95556 6.45514L7.0333 6.70085C7.03931 6.7199 7.01765 6.73565 7.00141 6.72401L6.79174 6.57414L6.58207 6.72401C6.56582 6.73562 6.54417 6.71987 6.55018 6.70085L6.62791 6.45514L6.42059 6.30207C6.40453 6.29019 6.41279 6.2647 6.43276 6.26456L6.69045 6.26259L6.77198 6.01812C6.77834 5.99917 6.80517 5.99917 6.81149 6.01812Z" fill="#F5F5F5"/>
<path d="M2.11423 6.01812L2.19576 6.26259L2.45345 6.26456C2.47342 6.2647 2.48168 6.29019 2.46561 6.30207L2.2583 6.45514L2.33603 6.70085C2.34204 6.7199 2.32038 6.73565 2.30414 6.72401L2.09447 6.57414L1.8848 6.72401C1.86856 6.73562 1.8469 6.71987 1.85291 6.70085L1.93064 6.45514L1.72333 6.30207C1.70726 6.29019 1.71552 6.2647 1.73549 6.26456L1.99319 6.26259L2.07471 6.01812C2.08111 5.99917 2.1079 5.99917 2.11423 6.01812Z" fill="#F5F5F5"/>
</svg>
