<svg width="50" height="50" viewBox="0 0 50 50" fill="none" xmlns="http://www.w3.org/2000/svg">
<path d="M29.5521 12.8417C31.5865 14.1173 33.0131 16.2758 33.2729 18.7814C34.1026 19.1691 35.0234 19.392 35.9997 19.392C39.564 19.392 42.4528 16.5032 42.4528 12.9394C42.4528 9.37518 39.564 6.48633 35.9997 6.48633C32.4695 6.48743 29.6059 9.32467 29.5521 12.8417ZM25.3245 26.0543C28.8888 26.0543 31.7776 23.1649 31.7776 19.6012C31.7776 16.0375 28.8882 13.1487 25.3245 13.1487C21.7608 13.1487 18.8703 16.0381 18.8703 19.6018C18.8703 23.1655 21.7608 26.0543 25.3245 26.0543ZM28.0618 26.4942H22.5861C18.0302 26.4942 14.3237 30.2012 14.3237 34.7571V41.4535L14.3407 41.5584L14.802 41.7028C19.1498 43.0613 22.9271 43.5143 26.0362 43.5143C32.1087 43.5143 35.6285 41.783 35.8454 41.6726L36.2765 41.4546H36.3226V34.7571C36.3242 30.2012 32.6178 26.4942 28.0618 26.4942ZM38.7381 19.8324H33.3047C33.246 22.0063 32.318 23.9639 30.8502 25.3718C34.8999 26.576 37.8629 30.3313 37.8629 34.767V36.8306C43.2276 36.634 46.3191 35.1135 46.5228 35.0114L46.9539 34.7928H47V28.0943C47 23.5389 43.2935 19.8324 38.7381 19.8324ZM14.0014 19.3931C15.2638 19.3931 16.4383 19.0247 17.4333 18.397C17.7496 16.334 18.8555 14.5313 20.4353 13.3035C20.4419 13.1827 20.4534 13.063 20.4534 12.9411C20.4534 9.37683 17.564 6.48798 14.0014 6.48798C10.4366 6.48798 7.54826 9.37683 7.54826 12.9411C7.54826 16.5037 10.4366 19.3931 14.0014 19.3931ZM19.7967 25.3718C18.336 23.971 17.4113 22.0239 17.3438 19.8631C17.1423 19.8483 16.9429 19.8324 16.7376 19.8324H11.2624C6.70648 19.8324 3 23.5389 3 28.0943V34.7917L3.01702 34.895L3.47827 35.0405C6.96621 36.1294 10.0791 36.6312 12.7829 36.7894V34.767C12.784 30.3313 15.7459 26.5771 19.7967 25.3718Z" fill="#4629D3"/>
</svg>
