<svg width="50" height="50" viewBox="0 0 50 50" fill="none" xmlns="http://www.w3.org/2000/svg">
<path d="M25 2C23.1096 2 21.3981 2.87296 19.0341 4.07779C15.9877 5.62892 11.8116 7.74279 4.74574 9.24341L4 9.41656V10.138C4 38.2712 24.4071 47.7078 24.6122 47.798L25.0298 48L25.4176 47.798C25.6227 47.697 46 37.3333 46 10.138V9.41656L45.2543 9.24341C38.1884 7.74279 34.0123 5.62892 30.9659 4.07779C28.6019 2.87296 26.8904 2 25 2Z" fill="#4629D3"/>
<path d="M20.1158 7.25101L20.116 7.25092C22.1744 6.18662 23.5257 5.5 25 5.5C26.4743 5.5 27.8256 6.18662 29.884 7.25092L29.8842 7.25101C32.5095 8.60714 36.1336 10.4679 42.2508 11.7864L42.5 11.8451V12.0765C42.5 23.7657 38.1868 31.8198 33.8622 36.9638C31.6977 39.5383 29.5283 41.3858 27.8918 42.5937C27.0737 43.1974 26.3894 43.6408 25.9065 43.9349C25.665 44.0819 25.474 44.1915 25.3418 44.265C25.2757 44.3018 25.2244 44.3296 25.189 44.3485C25.1524 44.368 25.1344 44.3771 25.1345 44.3771L25.1344 44.3769L25.1243 44.3823L25.0172 44.4389L24.8879 44.3755L24.8797 44.3714L24.8713 44.3677L24.8713 44.3677C24.8689 44.3666 24.7991 44.3343 24.6677 44.2671C24.5359 44.1998 24.3452 44.099 24.1039 43.9627C23.6213 43.6902 22.9373 43.276 22.1192 42.7047C20.4827 41.5617 18.3127 39.7915 16.1473 37.2692C11.822 32.2311 7.5 24.1769 7.5 12.0765V11.8451L7.74921 11.7864C13.8664 10.4679 17.4905 8.60714 20.1158 7.25101Z" fill="#4629D3" stroke="#FAFAFA"/>
<path d="M29.3547 30C28.9992 30 28.7109 29.7122 28.7102 29.3567L28.705 26.5362C28.7031 25.5068 27.3348 25.1515 26.8323 26.0499L25.453 28.5158C25.3598 28.6825 25.1837 28.7857 24.9928 28.7857C24.8024 28.7857 24.6267 28.6831 24.5333 28.5172L23.1599 26.0791C22.655 25.1828 21.2886 25.5411 21.2886 26.5698V29.3557C21.2886 29.7115 21.0001 30 20.6443 30C20.2885 30 20 29.7115 20 29.3557V20.6934C20 20.3105 20.3105 20 20.6934 20C20.9448 20 21.1766 20.1361 21.299 20.3557L24.1407 25.4516C24.5234 26.1378 25.5117 26.1349 25.8903 25.4465L28.6886 20.3587C28.8103 20.1374 29.0428 20 29.2952 20C29.6772 20 29.987 20.3094 29.9875 20.6913L29.9991 29.3547C29.9996 29.7109 29.7109 30 29.3547 30Z" fill="white"/>
</svg>
