<?xml version="1.0" encoding="iso-8859-1"?>
<!-- Generator: Adobe Illustrator 16.0.0, SVG Export Plug-In . SVG Version: 6.00 Build 0)  -->
<!DOCTYPE svg PUBLIC "-//W3C//DTD SVG 1.1//EN" "http://www.w3.org/Graphics/SVG/1.1/DTD/svg11.dtd">
<svg xmlns="http://www.w3.org/2000/svg" xmlns:xlink="http://www.w3.org/1999/xlink" version="1.1" id="Capa_1" x="0px" y="0px" width="512px" height="512px" viewBox="0 0 55.291 55.29" style="enable-background:new 0 0 55.291 55.29;" xml:space="preserve">
<g>
	<path d="M35.888,20.329l-5.314,3.861l2.03,6.248l-5.314-3.861l-5.314,3.861l2.03-6.248l-5.315-3.861h6.569l2.03-6.247l2.03,6.247   H35.888z M51.771,23.167c0,2.653-2.162,4.229-3.74,5.379c-0.361,0.263-0.861,0.628-1.156,0.892c0.082,0.414,0.291,1.064,0.427,1.49   c0.584,1.828,1.385,4.33-0.14,6.424c-1.531,2.105-4.172,2.114-6.1,2.121c-0.467,0.002-1.12,0.004-1.525,0.049   c-0.166,0.369-0.365,0.978-0.508,1.414c-0.042,0.131-0.09,0.27-0.135,0.405V55.29l-11.375-9l-11.625,9V39.867   c-0.048-0.127-0.095-0.246-0.14-0.346c-0.406-0.047-1.059-0.049-1.526-0.051c-1.928-0.007-4.568-0.016-6.1-2.121   c-1.524-2.094-0.723-4.597-0.139-6.424c0.136-0.426,0.344-1.076,0.427-1.49c-0.296-0.264-0.797-0.629-1.157-0.892   c-1.578-1.15-3.74-2.726-3.74-5.379s2.162-4.229,3.74-5.379c0.361-0.263,0.862-0.628,1.157-0.892   c-0.083-0.414-0.291-1.064-0.427-1.49c-0.584-1.828-1.385-4.33,0.139-6.424c1.532-2.105,4.172-2.114,6.1-2.12   c0.467-0.002,1.12-0.004,1.526-0.05c0.165-0.369,0.364-0.977,0.507-1.414c0.603-1.844,1.429-4.37,3.927-5.181   C20.629,0.072,21.091,0,21.563,0c1.865,0,3.384,1.094,4.725,2.059c0.386,0.278,0.983,0.708,1.357,0.908   c0.374-0.2,0.972-0.63,1.356-0.908C30.341,1.094,31.861,0,33.727,0c0.472,0,0.935,0.073,1.375,0.216   c2.498,0.811,3.324,3.337,3.927,5.181c0.143,0.437,0.342,1.046,0.508,1.414c0.405,0.046,1.059,0.048,1.525,0.05   c1.928,0.007,4.568,0.016,6.1,2.121c1.524,2.094,0.724,4.597,0.14,6.424c-0.136,0.426-0.345,1.077-0.427,1.49   c0.295,0.264,0.797,0.629,1.156,0.892C49.609,18.938,51.771,20.514,51.771,23.167z M41.367,9.861   c1.248,1.287,2.319,2.744,3.168,4.34c0.426-1.344,0.786-2.65,0.2-3.456C44.142,9.931,42.781,9.87,41.367,9.861z M41.769,23.165   c0-7.789-6.336-14.125-14.125-14.125s-14.125,6.336-14.125,14.125S19.855,37.29,27.644,37.29S41.769,30.954,41.769,23.165z    M30.958,4.346c1.807,0.316,3.521,0.886,5.113,1.671c-0.445-1.347-0.927-2.632-1.9-2.948C34.027,3.022,33.878,3,33.724,3   C32.887,3,31.932,3.649,30.958,4.346z M19.215,6.018c1.594-0.785,3.308-1.355,5.114-1.671c-0.972-0.698-1.928-1.346-2.766-1.346   c-0.154,0-0.303,0.022-0.448,0.069C20.142,3.385,19.66,4.67,19.215,6.018z M10.754,14.202c0.849-1.596,1.919-3.053,3.167-4.34   c-1.414,0.009-2.775,0.069-3.368,0.884C9.966,11.552,10.328,12.857,10.754,14.202z M8.738,25.909   c-0.129-0.898-0.219-1.809-0.219-2.744c0-0.934,0.09-1.846,0.219-2.744c-1.144,0.84-2.219,1.704-2.219,2.744   S7.594,25.069,8.738,25.909z M13.921,36.469c-1.248-1.287-2.318-2.744-3.167-4.34c-0.426,1.344-0.788,2.65-0.201,3.456   C11.146,36.398,12.508,36.46,13.921,36.469z M44.535,32.128c-0.85,1.597-1.92,3.054-3.168,4.34   c1.414-0.009,2.775-0.069,3.368-0.884C45.322,34.777,44.96,33.473,44.535,32.128z M48.769,23.165c0-1.04-1.075-1.904-2.219-2.744   c0.129,0.898,0.219,1.809,0.219,2.744c0,0.934-0.09,1.846-0.219,2.744C47.694,25.069,48.769,24.205,48.769,23.165z" fill="#FFFFFF"/>
</g>
<g>
</g>
<g>
</g>
<g>
</g>
<g>
</g>
<g>
</g>
<g>
</g>
<g>
</g>
<g>
</g>
<g>
</g>
<g>
</g>
<g>
</g>
<g>
</g>
<g>
</g>
<g>
</g>
<g>
</g>
</svg>
