<svg width="105" height="15" viewBox="0 0 105 15" version="1.1" xmlns="http://www.w3.org/2000/svg" xmlns:xlink="http://www.w3.org/1999/xlink">
<title>MIX.RENT</title>
<desc>Created using Figma</desc>
<g id="Canvas" transform="translate(3289 -8388)">
<g id="MIX.RENT">
<use xlink:href="#path0_fill" transform="translate(-3288.83 8388.15)" fill="#2D9CDB"/>
<use xlink:href="#path1_fill" transform="translate(-3288.83 8388.15)" fill="#2D9CDB"/>
<use xlink:href="#path2_fill" transform="translate(-3288.83 8388.15)" fill="#2D9CDB"/>
<use xlink:href="#path3_fill" transform="translate(-3288.83 8388.15)" fill="#2D9CDB"/>
<use xlink:href="#path4_fill" transform="translate(-3288.83 8388.15)" fill="#2D9CDB"/>
<use xlink:href="#path5_fill" transform="translate(-3288.83 8388.15)" fill="#2D9CDB"/>
<use xlink:href="#path6_fill" transform="translate(-3288.83 8388.15)" fill="#2D9CDB"/>
<use xlink:href="#path7_fill" transform="translate(-3288.83 8388.15)" fill="#2D9CDB"/>
</g>
</g>
<defs>
<path id="path0_fill" d="M 12.5255 14.4911L 12.4854 7.8873L 9.43919 13.1869L 7.35495 13.1869L 4.30876 8.11501L 4.30876 14.4911L 0 14.4911L 0 0L 3.88791 0L 8.4572 7.72168L 12.9062 0L 16.7941 0L 16.8342 14.4911L 12.5255 14.4911Z"/>
<path id="path1_fill" d="M 19.1209 0L 23.8505 0L 23.8505 14.4911L 19.1209 14.4911L 19.1209 0Z"/>
<path id="path2_fill" d="M 35.0054 14.4911L 32.5805 10.6199L 30.2157 14.4911L 24.8247 14.4911L 29.895 7.18344L 25.0051 0L 30.3159 0L 32.7007 3.64348L 35.0254 0L 40.1158 0L 35.2459 6.99713L 40.4164 14.4911L 35.0054 14.4911Z"/>
<path id="path3_fill" d="M 43.2966 14.6981C 42.5351 14.6981 41.9005 14.4497 41.3928 13.9529C 40.8984 13.4422 40.6513 12.7936 40.6513 12.0069C 40.6513 11.2203 40.8984 10.5854 41.3928 10.1024C 41.9005 9.60553 42.5351 9.35711 43.2966 9.35711C 44.0582 9.35711 44.6861 9.60553 45.1805 10.1024C 45.6882 10.5854 45.942 11.2203 45.942 12.0069C 45.942 12.7936 45.6882 13.4422 45.1805 13.9529C 44.6861 14.4497 44.0582 14.6981 43.2966 14.6981Z"/>
<path id="path4_fill" d="M 53.4916 10.8476L 52.209 10.8476L 52.209 14.4911L 47.4794 14.4911L 47.4794 0L 54.2331 0C 55.5291 0 56.658 0.220817 57.62 0.66245C 58.5819 1.10408 59.3234 1.73893 59.8445 2.56699C 60.3656 3.39506 60.6261 4.36113 60.6261 5.46521C 60.6261 6.50029 60.399 7.40426 59.9447 8.17712C 59.4904 8.94998 58.8358 9.56412 57.9807 10.0196L 60.9267 14.4911L 55.8764 14.4911L 53.4916 10.8476ZM 55.8564 5.46521C 55.8564 4.92697 55.6961 4.51294 55.3754 4.22312C 55.0548 3.9195 54.5738 3.76769 53.9325 3.76769L 52.209 3.76769L 52.209 7.16274L 53.9325 7.16274C 54.5738 7.16274 55.0548 7.01783 55.3754 6.72801C 55.6961 6.42439 55.8564 6.00345 55.8564 5.46521Z"/>
<path id="path5_fill" d="M 74.0758 10.8062L 74.0758 14.4911L 62.4121 14.4911L 62.4121 0L 73.8152 0L 73.8152 3.68488L 67.0615 3.68488L 67.0615 5.38241L 72.9936 5.38241L 72.9936 8.90167L 67.0615 8.90167L 67.0615 10.8062L 74.0758 10.8062Z"/>
<path id="path6_fill" d="M 89.7246 0L 89.7246 14.4911L 85.8367 14.4911L 80.5059 7.908L 80.5059 14.4911L 75.8965 14.4911L 75.8965 0L 79.7844 0L 85.1152 6.5831L 85.1152 0L 89.7246 0Z"/>
<path id="path7_fill" d="M 95.0497 3.78839L 90.9413 3.78839L 90.9413 0L 103.888 0L 103.888 3.78839L 99.7793 3.78839L 99.7793 14.4911L 95.0497 14.4911L 95.0497 3.78839Z"/>
</defs>
</svg>
