<svg width="18" height="18" viewBox="0 0 18 18" fill="none" xmlns="http://www.w3.org/2000/svg">
<path d="M18 3H0V15.0001H18V3Z" fill="#F0F0F0"/>
<path d="M18 4.5H0V5.99987H18V4.5Z" fill="#D80027"/>
<path d="M18 7.5H0V8.99987H18V7.5Z" fill="#D80027"/>
<path d="M18 10.5H0V11.9999H18V10.5Z" fill="#D80027"/>
<path d="M18 13.5H0V14.9999H18V13.5Z" fill="#D80027"/>
<path d="M9 3H0V9.46161H9V3Z" fill="#2E52B2"/>
<path d="M3.50832 5.64648L3.36337 6.09241H2.89453L3.2739 6.36786L3.12895 6.81374L3.50832 6.53829L3.88745 6.81374L3.74254 6.36786L4.12191 6.09241H3.65303L3.50832 5.64648Z" fill="#F0F0F0"/>
<path d="M3.65303 7.70175L3.50832 7.25586L3.36337 7.70175H2.89453L3.2739 7.97723L3.12895 8.42312L3.50832 8.14763L3.88745 8.42312L3.74254 7.97723L4.12191 7.70175H3.65303Z" fill="#F0F0F0"/>
<path d="M1.67259 7.70175L1.52786 7.25586L1.38291 7.70175H0.914062L1.29343 7.97723L1.14848 8.42312L1.52786 8.14763L1.90702 8.42312L1.7621 7.97723L2.1414 7.70175H1.67259Z" fill="#F0F0F0"/>
<path d="M1.52786 5.64648L1.38291 6.09241H0.914062L1.29343 6.36786L1.14848 6.81374L1.52786 6.53829L1.90702 6.81374L1.7621 6.36786L2.1414 6.09241H1.67259L1.52786 5.64648Z" fill="#F0F0F0"/>
<path d="M3.50832 4.03711L3.36337 4.48306H2.89453L3.2739 4.75855L3.12895 5.20443L3.50832 4.92895L3.88745 5.20443L3.74254 4.75855L4.12191 4.48306H3.65303L3.50832 4.03711Z" fill="#F0F0F0"/>
<path d="M1.52786 4.03711L1.38291 4.48306H0.914062L1.29343 4.75855L1.14848 5.20443L1.52786 4.92895L1.90702 5.20443L1.7621 4.75855L2.1414 4.48306H1.67259L1.52786 4.03711Z" fill="#F0F0F0"/>
<path d="M5.49266 5.64648L5.34775 6.09241H4.87891L5.25824 6.36786L5.11336 6.81374L5.49266 6.53829L5.87186 6.81374L5.72691 6.36786L6.10628 6.09241H5.63744L5.49266 5.64648Z" fill="#F0F0F0"/>
<path d="M5.63744 7.70175L5.49266 7.25586L5.34775 7.70175H4.87891L5.25824 7.97723L5.11336 8.42312L5.49266 8.14763L5.87186 8.42312L5.72691 7.97723L6.10628 7.70175H5.63744Z" fill="#F0F0F0"/>
<path d="M7.61787 7.70175L7.47313 7.25586L7.32818 7.70175H6.85938L7.23868 7.97723L7.09376 8.42312L7.47313 8.14763L7.85229 8.42312L7.70734 7.97723L8.08671 7.70175H7.61787Z" fill="#F0F0F0"/>
<path d="M7.47313 5.64648L7.32818 6.09241H6.85938L7.23868 6.36786L7.09376 6.81374L7.47313 6.53829L7.85229 6.81374L7.70734 6.36786L8.08671 6.09241H7.61787L7.47313 5.64648Z" fill="#F0F0F0"/>
<path d="M5.49266 4.03711L5.34775 4.48306H4.87891L5.25824 4.75855L5.11336 5.20443L5.49266 4.92895L5.87186 5.20443L5.72691 4.75855L6.10628 4.48306H5.63744L5.49266 4.03711Z" fill="#F0F0F0"/>
<path d="M7.47313 4.03711L7.32818 4.48306H6.85938L7.23868 4.75855L7.09376 5.20443L7.47313 4.92895L7.85229 5.20443L7.70734 4.75855L8.08671 4.48306H7.61787L7.47313 4.03711Z" fill="#F0F0F0"/>
</svg>
