<svg width="50" height="50" viewBox="0 0 50 50" fill="none" xmlns="http://www.w3.org/2000/svg">
<g clip-path="url(#clip0)">
<path d="M31.6709 30.5187L32.0002 30.807L32.3295 30.5187L36.4573 26.9057L48.3708 37.1245C48.0841 37.2726 47.7578 37.3569 47.411 37.3569H16.5894C16.2403 37.3569 15.9119 37.2722 15.6232 37.1236L27.543 26.9056L31.6709 30.5187Z" fill="#4629D3" stroke="#4629D3"/>
<path d="M47.4137 12.6426C47.7651 12.6426 48.0931 12.7265 48.3809 12.8749L32.0029 26.9129L15.6279 12.8782C15.9161 12.7277 16.2437 12.6426 16.5921 12.6426H47.4137Z" fill="#4629D3" stroke="#4629D3"/>
<path d="M14.5 15.4975L25.6608 25.1989L14.5 34.6831V15.4975Z" fill="#4629D3" stroke="#4629D3"/>
<path d="M49.5021 15.4902V34.683L38.3411 25.1986L49.5021 15.4902Z" fill="#4629D3" stroke="#4629D3"/>
<path d="M3 22H11" stroke="#4629D3" stroke-width="2" stroke-linecap="round"/>
<path d="M7 27H11" stroke="#4629D3" stroke-width="2" stroke-linecap="round"/>
<path d="M2 27H4" stroke="#4629D3" stroke-width="2" stroke-linecap="round"/>
<path d="M5 32H11" stroke="#4629D3" stroke-width="2" stroke-linecap="round"/>
<path d="M1.5 32H2" stroke="#4629D3" stroke-width="2" stroke-linecap="round"/>
</g>
<defs>
<clipPath id="clip0">
<rect width="50" height="50" fill="white"/>
</clipPath>
</defs>
</svg>
