<svg width="20" height="20" viewBox="0 0 20 20" fill="none" xmlns="http://www.w3.org/2000/svg">
<g clip-path="url(#clip0)">
<path d="M5.24752 20C3.84051 20 2.52147 19.4801 1.53318 18.536C0.544892 17.5919 0 16.3328 0 14.9893C0 13.6461 0.544494 12.3866 1.53318 11.4429L12.3968 1.06951C13.9511 -0.413877 16.3663 -0.347366 18.0145 1.22647C19.6627 2.80031 19.7335 5.10614 18.1792 6.59066L7.97357 16.3358C7.01553 17.2506 5.45529 17.2522 4.49566 16.3358C3.53682 15.4199 3.53722 13.93 4.49566 13.0149L11.4089 6.41356C11.6421 6.19084 12.0199 6.19084 12.2531 6.41356C12.4863 6.63627 12.4863 6.99695 12.2531 7.21967L5.33986 13.821C4.84671 14.2919 4.84671 15.0584 5.33986 15.5297C5.83381 16.0006 6.63622 15.9999 7.12937 15.5297L17.335 5.78455C18.4077 4.75991 18.3373 3.14692 17.1703 2.03258C16.0033 0.918241 14.3141 0.85097 13.241 1.87562L2.37738 12.249C1.61438 12.9776 1.19407 13.9509 1.19407 14.9893C1.19407 16.028 1.61438 17.0013 2.37738 17.7299C3.14039 18.4585 4.15973 18.8598 5.24752 18.8598C6.33492 18.8598 7.35425 18.4585 8.11726 17.7299L18.9809 7.35649C19.2141 7.13377 19.5918 7.13377 19.8251 7.35649C20.0583 7.57921 20.0583 7.93988 19.8251 8.1626L8.96146 18.536C7.97317 19.4797 6.65413 20 5.24752 20Z" fill="#AAAAAA"/>
</g>
<defs>
<clipPath id="clip0">
<rect width="20" height="20" fill="white"/>
</clipPath>
</defs>
</svg>
