<svg width="18" height="18" viewBox="0 0 18 18" fill="none" xmlns="http://www.w3.org/2000/svg">
<g clip-path="url(#clip0)">
<path d="M16.977 2.95319C16.7229 2.69873 16.4213 2.57147 16.0731 2.57147H14.7875V1.60715C14.7875 1.16528 14.63 0.786901 14.3153 0.472169C14.0004 0.157436 13.6223 0 13.1802 0H12.5375C12.0954 0 11.7171 0.157437 11.4024 0.472204C11.0876 0.786901 10.9302 1.16531 10.9302 1.60719V2.57151H7.07326V1.60719C7.07326 1.16531 6.91583 0.786936 6.60106 0.472204C6.28636 0.157437 5.90802 0 5.46597 0H4.82317C4.38122 0 4.00284 0.157437 3.68807 0.472204C3.37338 0.786901 3.2159 1.16531 3.2159 1.60719V2.57151H1.93031C1.58201 2.57151 1.28072 2.69876 1.02625 2.95323C0.771782 3.20766 0.644531 3.50909 0.644531 3.85728V16.7144C0.644531 17.0624 0.771782 17.3637 1.02625 17.6183C1.28068 17.8727 1.58197 18 1.93031 18H16.0728C16.421 18 16.7226 17.8728 16.9768 17.6183C17.2313 17.3638 17.3586 17.0623 17.3586 16.7144V3.85725C17.3585 3.50895 17.2314 3.20766 16.977 2.95319ZM12.2161 1.60729C12.2161 1.51347 12.2459 1.43638 12.3061 1.37626C12.3663 1.31606 12.4434 1.28591 12.5373 1.28591H13.18C13.2739 1.28591 13.3507 1.31596 13.4111 1.37626C13.4714 1.43649 13.5014 1.51357 13.5014 1.60729V4.50005C13.5014 4.59384 13.4714 4.67078 13.4111 4.73108C13.3507 4.79121 13.2739 4.82143 13.18 4.82143H12.5373C12.4434 4.82143 12.3663 4.79135 12.3061 4.73108C12.2459 4.67075 12.2161 4.59384 12.2161 4.50005V1.60729ZM4.50178 1.60729C4.50178 1.51347 4.53186 1.43638 4.59213 1.37626C4.65243 1.31606 4.72937 1.28591 4.82317 1.28591H5.46597C5.55979 1.28591 5.63688 1.31596 5.697 1.37626C5.7572 1.43649 5.78742 1.51357 5.78742 1.60729V4.50005C5.78742 4.59384 5.75734 4.67089 5.697 4.73108C5.63674 4.79121 5.55979 4.82143 5.46597 4.82143H4.82317C4.72937 4.82143 4.65233 4.79135 4.59213 4.73108C4.53201 4.67075 4.50178 4.59384 4.50178 4.50005V1.60729ZM16.0728 16.7142H1.93031V6.42862H16.0728V16.7142Z" fill="#AAAAAA"/>
<rect x="3.60156" y="9" width="1.8" height="1.8" rx="0.5" fill="#AAAAAA"/>
<rect x="8.10156" y="9" width="1.8" height="1.8" rx="0.5" fill="#AAAAAA"/>
<rect x="8.10156" y="13.5" width="1.8" height="1.8" rx="0.5" fill="#AAAAAA"/>
<rect x="3.60156" y="13.5" width="1.8" height="1.8" rx="0.5" fill="#AAAAAA"/>
<rect x="12.6016" y="13.5" width="1.8" height="1.8" rx="0.5" fill="#AAAAAA"/>
<rect x="12.6016" y="9" width="1.8" height="1.8" rx="0.5" fill="#AAAAAA"/>
</g>
<defs>
<clipPath id="clip0">
<rect width="18" height="18" fill="white"/>
</clipPath>
</defs>
</svg>
