<svg width="40" height="32" viewBox="0 0 40 32" fill="none" xmlns="http://www.w3.org/2000/svg">
<path d="M20 12C16.686 12 14 14.6872 14 18C14 21.314 16.686 24 20 24C23.3132 24 26 21.314 26 18C26 14.6872 23.3132 12 20 12ZM36 6H31.2C30.54 6 29.8288 5.488 29.6204 4.8616L28.3796 1.138C28.1704 0.512 27.46 0 26.8 0H13.2C12.54 0 11.8288 0.512 11.6204 1.1384L10.3796 4.862C10.1704 5.488 9.46 6 8.8 6H4C1.8 6 0 7.8 0 10V28C0 30.2 1.8 32 4 32H36C38.2 32 40 30.2 40 28V10C40 7.8 38.2 6 36 6ZM20 28C14.4772 28 10 23.5228 10 18C10 12.4776 14.4772 8 20 8C25.522 8 30 12.4776 30 18C30 23.5228 25.522 28 20 28ZM34.6 12.7972C33.8272 12.7972 33.2 12.1708 33.2 11.3972C33.2 10.6244 33.8272 9.9972 34.6 9.9972C35.3736 9.9972 36 10.6244 36 11.3972C36 12.1708 35.3732 12.7972 34.6 12.7972Z" fill="#EDEDED"/>
</svg>
