<svg width="18" height="18" viewBox="0 0 18 18" fill="none" xmlns="http://www.w3.org/2000/svg">
<circle cx="9" cy="9" r="9" fill="#EA1D1D"/>
<g clip-path="url(#clip0)">
<mask id="path-3-inside-1" fill="white">
<path d="M12.5 4.5H5.5C4.67196 4.5009 4.0009 5.17196 4 6V10.3333C4.0009 11.1614 4.67196 11.8324 5.5 11.8333H5.9633L5.67 13.3C5.65739 13.363 5.68221 13.4277 5.73364 13.4661C5.78507 13.5046 5.85409 13.5101 5.91097 13.4801L9.04118 11.8333H12.5C13.328 11.8324 13.9991 11.1614 14 10.3333V6C13.9991 5.17196 13.328 4.5009 12.5 4.5ZM13.6667 10.3333C13.6659 10.9774 13.144 11.4993 12.5 11.5H9C8.9729 11.5 8.94629 11.5066 8.92236 11.5192L6.06551 13.0229L6.33 11.7C6.34001 11.651 6.32747 11.6 6.29582 11.5613C6.26416 11.5225 6.21672 11.5 6.16667 11.5H5.5C4.85596 11.4993 4.33407 10.9774 4.33333 10.3333V6C4.33407 5.35596 4.85596 4.83407 5.5 4.83333H12.5C13.144 4.83407 13.6659 5.35596 13.6667 6V10.3333Z"/>
</mask>
<path d="M12.5 4.5H5.5C4.67196 4.5009 4.0009 5.17196 4 6V10.3333C4.0009 11.1614 4.67196 11.8324 5.5 11.8333H5.9633L5.67 13.3C5.65739 13.363 5.68221 13.4277 5.73364 13.4661C5.78507 13.5046 5.85409 13.5101 5.91097 13.4801L9.04118 11.8333H12.5C13.328 11.8324 13.9991 11.1614 14 10.3333V6C13.9991 5.17196 13.328 4.5009 12.5 4.5ZM13.6667 10.3333C13.6659 10.9774 13.144 11.4993 12.5 11.5H9C8.9729 11.5 8.94629 11.5066 8.92236 11.5192L6.06551 13.0229L6.33 11.7C6.34001 11.651 6.32747 11.6 6.29582 11.5613C6.26416 11.5225 6.21672 11.5 6.16667 11.5H5.5C4.85596 11.4993 4.33407 10.9774 4.33333 10.3333V6C4.33407 5.35596 4.85596 4.83407 5.5 4.83333H12.5C13.144 4.83407 13.6659 5.35596 13.6667 6V10.3333Z" fill="#FAFAFA"/>
<path d="M12.5 4.5L12.5011 3.5H12.5V4.5ZM5.5 4.5V3.5L5.49892 3.5L5.5 4.5ZM4 6L3 5.99892V6H4ZM4 10.3333H3L3 10.3344L4 10.3333ZM5.5 11.8333L5.49892 12.8333H5.5V11.8333ZM5.9633 11.8333L6.94388 12.0294L7.18307 10.8333H5.9633V11.8333ZM5.67 13.3L6.65058 13.4961L6.65059 13.4961L5.67 13.3ZM5.91097 13.4801L5.44537 12.5951L5.44512 12.5953L5.91097 13.4801ZM9.04118 11.8333V10.8333H8.79418L8.57558 10.9483L9.04118 11.8333ZM12.5 11.8333V12.8333L12.5011 12.8333L12.5 11.8333ZM14 10.3333L15 10.3344V10.3333H14ZM14 6H15L15 5.99892L14 6ZM13.6667 10.3333L14.6667 10.3345V10.3333H13.6667ZM12.5 11.5V12.5L12.5011 12.5L12.5 11.5ZM8.92236 11.5192L9.38812 12.4041L9.38873 12.4038L8.92236 11.5192ZM6.06551 13.0229L5.08492 12.8268L4.67327 14.8857L6.53127 13.9078L6.06551 13.0229ZM6.33 11.7L5.35017 11.5002L5.3494 11.504L6.33 11.7ZM6.29582 11.5613L5.52085 12.1933L5.5215 12.1941L6.29582 11.5613ZM5.5 11.5L5.49886 12.5H5.5V11.5ZM4.33333 10.3333H3.33333L3.33333 10.3345L4.33333 10.3333ZM4.33333 6L3.33333 5.99886V6H4.33333ZM5.5 4.83333V3.83333L5.49886 3.83333L5.5 4.83333ZM12.5 4.83333L12.5011 3.83333H12.5V4.83333ZM13.6667 6H14.6667L14.6667 5.99886L13.6667 6ZM12.5 3.5H5.5V5.5H12.5V3.5ZM5.49892 3.5C4.11944 3.50149 3.00149 4.61944 3 5.99892L5 6.00108C5.0003 5.72448 5.22448 5.5003 5.50108 5.5L5.49892 3.5ZM3 6V10.3333H5V6H3ZM3 10.3344C3.00149 11.7139 4.11944 12.8318 5.49892 12.8333L5.50108 10.8333C5.22448 10.833 5.0003 10.6089 5 10.3323L3 10.3344ZM5.5 12.8333H5.9633V10.8333H5.5V12.8333ZM4.98271 11.6372L4.68942 13.1039L6.65059 13.4961L6.94388 12.0294L4.98271 11.6372ZM4.68942 13.1039C4.60104 13.5458 4.77512 13.9978 5.13445 14.2668L6.33283 12.6655C6.5893 12.8575 6.71374 13.1803 6.65058 13.4961L4.68942 13.1039ZM5.13445 14.2668C5.49509 14.5367 5.97863 14.5746 6.37682 14.365L5.44512 12.5953C5.72954 12.4455 6.07506 12.4726 6.33283 12.6655L5.13445 14.2668ZM6.37657 14.3651L9.50678 12.7183L8.57558 10.9483L5.44537 12.5951L6.37657 14.3651ZM9.04118 12.8333H12.5V10.8333H9.04118V12.8333ZM12.5011 12.8333C13.8806 12.8318 14.9985 11.7139 15 10.3344L13 10.3323C12.9997 10.6089 12.7755 10.833 12.4989 10.8333L12.5011 12.8333ZM15 10.3333V6H13V10.3333H15ZM15 5.99892C14.9985 4.61944 13.8806 3.50149 12.5011 3.5L12.4989 5.5C12.7755 5.5003 12.9997 5.72448 13 6.00108L15 5.99892ZM12.6667 10.3322C12.6666 10.4248 12.5915 10.4999 12.4989 10.5L12.5011 12.5C13.6966 12.4986 14.6653 11.5299 14.6667 10.3345L12.6667 10.3322ZM12.5 10.5H9V12.5H12.5V10.5ZM9 10.5C8.81037 10.5 8.62368 10.5462 8.456 10.6346L9.38873 12.4038C9.2689 12.467 9.13543 12.5 9 12.5V10.5ZM8.4566 10.6343L5.59975 12.138L6.53127 13.9078L9.38812 12.4041L8.4566 10.6343ZM7.0461 13.2189L7.31059 11.8961L5.3494 11.504L5.08492 12.8268L7.0461 13.2189ZM7.30982 11.8999C7.37971 11.5573 7.29237 11.2004 7.07014 10.9285L5.5215 12.1941C5.36258 11.9996 5.3003 11.7447 5.35017 11.5002L7.30982 11.8999ZM7.07079 10.9293C6.84871 10.657 6.51641 10.5 6.16667 10.5V12.5C5.91702 12.5 5.67961 12.388 5.52085 12.1933L7.07079 10.9293ZM6.16667 10.5H5.5V12.5H6.16667V10.5ZM5.50114 10.5C5.40849 10.4999 5.33344 10.4248 5.33333 10.3322L3.33333 10.3345C3.33469 11.5299 4.30342 12.4986 5.49886 12.5L5.50114 10.5ZM5.33333 10.3333V6H3.33333V10.3333H5.33333ZM5.33333 6.00114C5.33344 5.90849 5.40849 5.83344 5.50114 5.83333L5.49886 3.83333C4.30342 3.83469 3.33469 4.80342 3.33333 5.99886L5.33333 6.00114ZM5.5 5.83333H12.5V3.83333H5.5V5.83333ZM12.4989 5.83333C12.5915 5.83344 12.6666 5.90849 12.6667 6.00114L14.6667 5.99886C14.6653 4.80342 13.6966 3.83469 12.5011 3.83333L12.4989 5.83333ZM12.6667 6V10.3333H14.6667V6H12.6667Z" fill="#FAFAFA" mask="url(#path-3-inside-1)"/>
<path d="M4.86389 4.93142C5.03899 4.79615 5.254 4.72277 5.47526 4.72276L12.6004 4.72266C12.8009 4.72266 12.9968 4.78296 13.1627 4.89573L13.364 5.03261C13.6435 5.22272 13.8081 5.5412 13.8015 5.87921L13.7109 10.4855C13.7062 10.7219 13.618 10.949 13.4618 11.1265L13.2068 11.4162C13.017 11.6319 12.7435 11.7556 12.4561 11.7556H8.94302C8.75795 11.7556 8.57684 11.8092 8.42156 11.9099L6.6425 13.0635C6.19087 13.3563 5.65871 12.827 5.94913 12.3738C6.13941 12.0769 5.97094 11.6816 5.62497 11.6132L5.09506 11.5084C4.84453 11.4588 4.6285 11.3015 4.50448 11.0783L4.37834 10.8512C4.29299 10.6976 4.24963 10.5242 4.25264 10.3484L4.33024 5.8178C4.33544 5.51413 4.47837 5.22927 4.71872 5.04359L4.86389 4.93142Z" fill="white"/>
<path d="M5.83301 6.66602H12.1663" stroke="#EA1D1D" stroke-linecap="round"/>
<path d="M5.83301 8H12.1663" stroke="#EA1D1D" stroke-linecap="round"/>
<path d="M5.83301 9.33398H12.1663" stroke="#EA1D1D" stroke-linecap="round"/>
</g>
<defs>
<clipPath id="clip0">
<rect x="4" y="4" width="10" height="10" fill="white"/>
</clipPath>
</defs>
</svg>
