<svg width="18" height="18" viewBox="0 0 18 18" fill="none" xmlns="http://www.w3.org/2000/svg">
<circle cx="9" cy="9" r="9" fill="#4629D3"/>
<g clip-path="url(#clip0)">
<path d="M8.99987 10.4286L7.76273 9.3457L4.22559 12.3778C4.35416 12.4971 4.52773 12.5714 4.71916 12.5714H13.2806C13.4713 12.5714 13.6442 12.4971 13.772 12.3778L10.237 9.3457L8.99987 10.4286Z" fill="#FAFAFA"/>
<path d="M13.7747 5.62131C13.6461 5.50131 13.4733 5.42773 13.2811 5.42773H4.71968C4.52897 5.42773 4.35611 5.50202 4.22754 5.62273L9.0004 9.71345L13.7747 5.62131Z" fill="#FAFAFA"/>
<path d="M4 6.05469V11.989L7.45214 9.0554L4 6.05469Z" fill="#FAFAFA"/>
<path d="M10.5479 9.05559L14 11.9892V6.05273L10.5479 9.05559Z" fill="#FAFAFA"/>
</g>
<defs>
<clipPath id="clip0">
<rect x="4" y="4" width="10" height="10" fill="white"/>
</clipPath>
</defs>
</svg>
