<svg width="18" height="18" viewBox="0 0 18 18" fill="none" xmlns="http://www.w3.org/2000/svg">
<circle cx="9" cy="9" r="9" fill="#3DD118"/>
<path d="M12.7805 6.5501C13.4064 6.41461 14 6.88955 14 7.52998V8.51372C14 8.97546 13.6768 9.39516 13.2187 9.45278C13.0856 9.46953 12.6675 9.60453 12.3645 9.31328C11.9045 8.87238 10.2882 7.2653 10.2381 7.21549C10.2365 7.21391 10.2363 7.21369 10.2347 7.21218C10.207 7.18677 9.92701 6.9459 9.49102 7.17617C9.06908 7.39856 8.44363 7.72447 8.18238 7.85138C7.68852 8.11424 7.27919 7.69719 7.27919 7.37951C7.27919 7.13309 7.43296 6.96585 7.65276 6.84285C8.24846 6.48173 9.50401 5.77698 10.027 5.49912C10.3448 5.33006 10.5738 5.31558 11.0102 5.68322C11.5131 6.10612 11.9641 6.49401 12.0202 6.54223C12.0241 6.54563 12.0279 6.54887 12.0321 6.55196C12.0631 6.5748 12.2106 6.67143 12.4308 6.62502C12.5389 6.60217 12.6579 6.57664 12.7805 6.5501ZM7.9724 11.5355C7.79639 11.355 7.47133 11.0095 7.30046 10.8242C7.29737 10.8209 7.29423 10.8176 7.29104 10.8143C7.10988 10.6288 6.82279 10.327 6.64236 10.1408C6.46073 9.95596 6.17396 9.6539 5.99325 9.46814C5.77506 9.24434 5.39766 9.25394 5.14973 9.49027C4.90311 9.72692 4.74512 10.1557 4.96523 10.408C4.97872 10.4235 4.99233 10.4373 5.00604 10.4498C5.22634 10.6505 5.42877 10.8473 5.61355 11.0811C5.62731 11.0985 5.64145 11.114 5.65592 11.1277C5.87131 11.3318 6.07316 11.524 6.26128 11.7535C6.26899 11.7628 6.2769 11.7716 6.28499 11.7798C6.49178 11.99 6.74767 12.2531 6.94315 12.4738C7.16291 12.7242 7.67078 12.6084 7.91885 12.3717C8.16626 12.135 8.19001 11.76 7.9724 11.5355ZM11.9217 9.83764C11.9193 9.83628 11.917 9.83439 11.9151 9.83242C10.1266 8.04393 10.9671 8.88476 10.0045 7.92013C10.0037 7.91935 10.003 7.9186 10.0022 7.91783C9.98255 7.89894 9.69966 7.63611 9.33098 7.79787C9.06263 7.91546 8.71714 8.07573 8.45719 8.19808C8.17153 8.34787 7.96595 8.39423 7.86942 8.39359C7.31718 8.38998 6.86914 7.94611 6.86914 7.39442C6.86914 7.03653 7.05915 6.72494 7.34253 6.54807C7.46056 6.46639 7.62411 6.3661 7.79586 6.26539C8.23947 6.00525 8.28096 5.43036 7.7667 5.43036C7.17498 5.43036 5.96001 6.2135 5.88037 6.26525C5.87749 6.26712 5.87484 6.26884 5.87189 6.27059C5.82944 6.29573 5.48064 6.48693 4.99653 6.291C4.50916 6.12128 4 6.48312 4 6.9992V9.16953C4 9.3107 3.99107 9.40358 4.12558 9.4464C4.29844 9.50143 4.58733 9.44685 4.69333 9.29963C4.73091 9.24745 4.77326 9.19811 4.8204 9.15229C5.24458 8.74827 5.94765 8.74408 6.33357 9.14146C6.33531 9.14326 6.33704 9.14507 6.33876 9.14689C6.54608 9.36552 6.77206 9.59909 6.98191 9.8153C6.98349 9.81693 6.98507 9.81856 6.98664 9.8202C7.19531 10.038 7.42029 10.2726 7.63063 10.4888C7.6379 10.4963 7.64504 10.5039 7.65204 10.5115C7.86155 10.7414 8.09332 10.9864 8.31078 11.2087C8.54231 11.4465 8.62475 11.769 8.57542 12.0803C8.57529 12.0811 8.57612 12.0817 8.57661 12.0825C8.57666 12.0825 8.57668 12.0826 8.57674 12.0827C8.58143 12.0886 8.72069 12.2438 8.80764 12.3315C8.97861 12.5026 9.2578 12.5026 9.4293 12.3315C9.59967 12.1604 9.60042 11.8818 9.4293 11.7098C9.42317 11.7037 8.81246 11.0649 8.86161 11.0154C8.9104 10.9662 9.68847 11.7758 9.70295 11.7906C9.87371 11.9614 10.1527 11.9614 10.3242 11.7906C10.4954 11.6196 10.495 11.3409 10.3242 11.1694C10.3195 11.1649 10.3062 11.1522 10.2933 11.1396C10.2762 11.123 10.2594 11.1069 10.2416 11.091C10.1072 10.9701 9.50288 10.4208 9.5551 10.3685C9.5933 10.3306 10.0026 10.6862 10.2907 10.9453C10.4745 11.1106 10.6846 11.3469 10.9296 11.3144C11.0203 11.3023 11.1078 11.2617 11.1776 11.1919C11.292 11.0775 11.327 10.9158 11.2866 10.7702C11.2531 10.6497 11.1564 10.5566 11.0717 10.4646C10.865 10.2402 10.4842 9.81944 10.5258 9.77747C10.5834 9.71954 11.303 10.4605 11.3045 10.462C11.4749 10.6328 11.7543 10.6328 11.9258 10.462C12.0955 10.2924 12.0966 10.0159 11.9291 9.84335C11.9269 9.84112 11.9245 9.83917 11.9217 9.83764Z" fill="white"/>
</svg>
