<svg width="18" height="18" viewBox="0 0 18 18" fill="none" xmlns="http://www.w3.org/2000/svg">
<circle cx="9" cy="9" r="9" fill="#2A73FF"/>
<path d="M12.3287 9.33332C12.2368 9.33332 12.1623 9.40786 12.1623 9.4998V13.4954C12.1623 13.5874 12.0877 13.6619 11.9958 13.6619H6.00237C5.91042 13.6619 5.8359 13.5873 5.8359 13.4954V4.5053C5.8359 4.41335 5.91044 4.33883 6.00237 4.33883H11.9958C12.0877 4.33883 12.1623 4.41337 12.1623 4.5053V5.50421C12.1623 5.59616 12.2368 5.67068 12.3287 5.67068C12.4207 5.67068 12.4952 5.59615 12.4952 5.50421V4.5053C12.4952 4.22946 12.2716 4.00586 11.9958 4.00586H6.00237C5.72655 4.00586 5.50293 4.22948 5.50293 4.5053V13.4954C5.50293 13.7713 5.72655 13.9949 6.00237 13.9949H11.9958C12.2716 13.9949 12.4952 13.7712 12.4952 13.4954V9.49982C12.4952 9.40786 12.4207 9.33332 12.3287 9.33332Z" fill="white"/>
<path d="M5.73828 4.32812H11.496C12.0483 4.32812 12.496 4.77584 12.496 5.32812V12.7504C12.496 13.3027 12.0483 13.7504 11.496 13.7504H5.73828V4.32812Z" fill="white"/>
<path d="M10.997 5.50391H7.00144C6.90948 5.50391 6.83496 5.57845 6.83496 5.67038C6.83496 5.76232 6.9095 5.83686 7.00144 5.83686H10.997C11.089 5.83686 11.1635 5.76232 11.1635 5.67038C11.1635 5.57845 11.089 5.50391 10.997 5.50391Z" fill="#2B73FF"/>
<path d="M11.1635 6.67038C11.1635 6.57843 11.089 6.50391 10.997 6.50391H7.00144C6.90948 6.50391 6.83496 6.57845 6.83496 6.67038C6.83496 6.76232 6.9095 6.83686 7.00144 6.83686H10.997C11.089 6.83688 11.1635 6.76234 11.1635 6.67038Z" fill="#2B73FF"/>
<path d="M7.00144 7.50195C6.90948 7.50195 6.83496 7.57649 6.83496 7.66843C6.83496 7.76036 6.9095 7.8349 7.00144 7.8349H9.99814C10.0901 7.8349 10.1646 7.76036 10.1646 7.66843C10.1646 7.57649 10.0901 7.50195 9.99814 7.50195H7.00144Z" fill="#2B73FF"/>
</svg>
