<svg width="20" height="20" viewBox="0 0 20 20" fill="none" xmlns="http://www.w3.org/2000/svg">
<path d="M3.33377 17.7778C3.33377 19 4.33377 20 5.55599 20H14.4449C15.6671 20 16.6671 19 16.6671 17.7778V5.44444C16.6671 4.89216 16.2194 4.44444 15.6671 4.44444H4.33377C3.78148 4.44444 3.33377 4.89216 3.33377 5.44444V17.7778ZM17.7782 2.11111C17.7782 1.55883 17.3305 1.11111 16.7782 1.11111H14.675C14.1719 1.11111 13.6895 0.911272 13.3338 0.555556C12.9781 0.199839 12.4956 0 11.9925 0H8.00833C7.50527 0 7.02282 0.199839 6.6671 0.555556C6.31138 0.911272 5.82893 1.11111 5.32587 1.11111H3.22266C2.67037 1.11111 2.22266 1.55883 2.22266 2.11111V2.33333C2.22266 2.88562 2.67037 3.33333 3.22266 3.33333H16.7782C17.3305 3.33333 17.7782 2.88562 17.7782 2.33333V2.11111Z" fill="#4629D3"/>
</svg>
