<svg width="22" height="22" viewBox="0 0 22 22" fill="none" xmlns="http://www.w3.org/2000/svg">
<g clip-path="url(#clip0)">
<path d="M20.3051 13.8197C20.0025 13.8197 19.7572 14.065 19.7572 14.3676V19.2325C19.7561 20.14 19.021 20.8754 18.1135 20.8762H2.73957C1.83209 20.8754 1.0969 20.14 1.09583 19.2325V4.95441C1.0969 4.04715 1.83209 3.31174 2.73957 3.31067H7.60445C7.90708 3.31067 8.15236 3.06539 8.15236 2.76276C8.15236 2.46033 7.90708 2.21484 7.60445 2.21484H2.73957C1.22724 2.21656 0.00171223 3.44209 0 4.95441V19.2327C0.00171223 20.745 1.22724 21.9706 2.73957 21.9723H18.1135C19.6258 21.9706 20.8513 20.745 20.853 19.2327V14.3676C20.853 14.065 20.6078 13.8197 20.3051 13.8197Z" fill="#4629D3"/>
<path d="M20.6339 0.806171C19.671 -0.156745 18.1099 -0.156745 17.147 0.806171L7.37185 10.5813C7.30486 10.6483 7.25649 10.7313 7.23123 10.8225L5.94578 15.4633C5.89291 15.6536 5.94663 15.8573 6.08618 15.9971C6.22594 16.1366 6.42969 16.1904 6.61997 16.1377L11.2608 14.852C11.3519 14.8268 11.435 14.7784 11.502 14.7114L21.2769 4.93607C22.2383 3.97251 22.2383 2.41267 21.2769 1.44911L20.6339 0.806171ZM8.5657 10.9374L16.5659 2.93704L19.146 5.51716L11.1456 13.5176L8.5657 10.9374ZM8.05032 11.9716L10.1116 14.0332L7.26034 14.8231L8.05032 11.9716ZM20.5021 4.16129L19.921 4.74238L17.3407 2.16204L17.922 1.58096C18.4568 1.0461 19.3241 1.0461 19.8589 1.58096L20.5021 2.2239C21.0361 2.7594 21.0361 3.626 20.5021 4.16129Z" fill="#4629D3"/>
</g>
<defs>
<clipPath id="clip0">
<rect width="22" height="22" fill="white"/>
</clipPath>
</defs>
</svg>
