<svg width="20" height="20" viewBox="0 0 20 20" fill="none" xmlns="http://www.w3.org/2000/svg">
<path d="M14.9996 0.00416134L12.406 0C9.49227 0 7.60926 1.9319 7.60926 4.92203V7.19141H5.00156C4.77622 7.19141 4.59375 7.37409 4.59375 7.59943V10.8875C4.59375 11.1128 4.77643 11.2953 5.00156 11.2953H7.60926V19.5922C7.60926 19.8175 7.79174 20 8.01707 20H11.4194C11.6447 20 11.8272 19.8173 11.8272 19.5922V11.2953H14.8762C15.1015 11.2953 15.284 11.1128 15.284 10.8875L15.2853 7.59943C15.2853 7.49123 15.2422 7.38762 15.1658 7.31105C15.0895 7.23448 14.9854 7.19141 14.8772 7.19141H11.8272V5.26763C11.8272 4.34298 12.0475 3.87358 13.252 3.87358L14.9992 3.87295C15.2243 3.87295 15.4068 3.69027 15.4068 3.46514V0.411972C15.4068 0.187052 15.2245 0.00457747 14.9996 0.00416134Z" fill="#FAFAFA"/>
</svg>
