<svg width="20" height="20" viewBox="0 0 20 20" fill="none" xmlns="http://www.w3.org/2000/svg">
<path d="M15.1746 0.966099H13.4078L13.9998 1.44706C14.2353 1.64245 14.4565 1.8846 14.6695 2.17435C14.8799 2.46326 15.0603 2.79977 15.2089 3.18053C15.3558 3.56212 15.431 3.998 15.431 4.48814C15.431 4.95742 15.3617 5.37659 15.2206 5.74065C15.0828 6.10638 14.9024 6.43537 14.6837 6.72846C14.4649 7.02154 14.2094 7.28373 13.9221 7.51503L13.037 8.19222C12.855 8.37258 12.6772 8.55878 12.4985 8.75501C12.3231 8.9479 12.2338 9.19506 12.2338 9.49315C12.2338 9.78624 12.3381 10.0217 12.5444 10.1946C12.754 10.3699 12.9444 10.5085 13.1139 10.6154L14.1351 11.3544C14.4165 11.5965 14.6803 11.8403 14.9342 12.0875C15.1863 12.3338 15.4135 12.6002 15.6147 12.8866C15.8118 13.1747 15.9712 13.4903 16.0831 13.8352C16.1959 14.18 16.2493 14.5767 16.2493 15.0259C16.2493 15.6521 16.0973 16.2625 15.7892 16.8529C15.4819 17.4449 15.0277 17.9768 14.4215 18.4469C13.8169 18.9178 13.0679 19.2944 12.1745 19.5767C11.2785 19.8589 10.249 20 9.07912 20C8.0504 20 7.15694 19.8956 6.40127 19.6844C5.64308 19.4739 5.01015 19.1942 4.50497 18.8444C3.9998 18.4953 3.62238 18.097 3.37521 17.6486C3.12889 17.2002 3.00781 16.7301 3.00781 16.2366C3.00781 15.7615 3.15978 15.2246 3.4679 14.6226C3.77518 14.0222 4.33797 13.4928 5.15711 13.0369C5.59131 12.7948 6.05558 12.5994 6.55157 12.4449C7.04589 12.2921 7.53353 12.1743 8.0195 12.0883C8.50547 12.004 8.96556 11.9439 9.40143 11.9071C9.83564 11.8721 10.2122 11.8445 10.5228 11.8262C10.33 11.5865 10.1488 11.3318 9.98176 11.0671C9.81894 10.8033 9.73627 10.4609 9.73627 10.0392C9.73627 9.81546 9.76383 9.63009 9.81894 9.48063C9.87321 9.32949 9.93333 9.17836 10.0035 9.02722C9.86236 9.04476 9.71623 9.05812 9.56342 9.06647C9.40811 9.07565 9.25614 9.0815 9.11002 9.0815C8.3535 9.0815 7.68717 8.96376 7.10768 8.72328C6.53069 8.48697 6.0347 8.17468 5.62972 7.79058C5.22642 7.40481 4.92164 6.96393 4.72124 6.46543C4.51666 5.9686 4.41646 5.46426 4.41646 4.95241C4.41646 4.34452 4.56593 3.73079 4.85484 3.10788C5.14876 2.4833 5.59131 1.92719 6.18584 1.43454C7.00247 0.808283 7.85 0.412492 8.73343 0.247996C9.61436 0.0835003 10.436 0 11.2009 0H16.9916L15.1746 0.966099ZM14.4899 16.0279C14.4899 15.7031 14.4365 15.4066 14.3263 15.1353C14.2169 14.8672 14.0532 14.6067 13.832 14.3554C13.6107 14.104 13.2984 13.8385 12.8959 13.5579C12.4926 13.2766 12.0359 12.9576 11.5215 12.5985C11.4155 12.5626 11.3153 12.5426 11.2259 12.5426H10.8794C10.8076 12.5426 10.6723 12.5484 10.4711 12.5559C10.2698 12.5651 10.0285 12.5852 9.74629 12.6152C9.46489 12.647 9.16429 12.6895 8.84115 12.7422C8.5205 12.7964 8.21322 12.8657 7.9193 12.9559C7.75481 13.0094 7.54188 13.092 7.27551 13.2031C7.00581 13.3125 6.74111 13.4736 6.47725 13.6815C6.21256 13.8894 5.9846 14.1558 5.79505 14.4748C5.6005 14.7946 5.50614 15.1804 5.50614 15.6346C5.50614 16.1039 5.61803 16.5297 5.84432 16.913C6.07061 17.2946 6.4021 17.6311 6.8338 17.9259C7.26132 18.2181 7.78153 18.4402 8.39108 18.5897C8.99729 18.7408 9.67531 18.816 10.4226 18.816C11.7753 18.816 12.7915 18.5546 13.4704 18.0302C14.1493 17.5058 14.4899 16.8387 14.4899 16.0279ZM12.2471 7.581C12.5653 7.26954 12.7607 6.93554 12.8291 6.57899C12.8984 6.22412 12.9327 5.92602 12.9327 5.68804C12.9327 5.2171 12.8609 4.70357 12.7197 4.14663C12.577 3.59218 12.3607 3.07365 12.0734 2.59436C11.7837 2.11339 11.4246 1.71009 10.9971 1.3811C10.5621 1.0496 10.0661 0.886774 9.49662 0.886774C9.13089 0.886774 8.7685 0.969439 8.41279 1.13226C8.05708 1.29676 7.76065 1.50468 7.53186 1.75267C7.28971 2.02906 7.12939 2.33216 7.04255 2.65949C6.95905 2.99015 6.91646 3.32832 6.91646 3.67402C6.91646 4.10905 6.98577 4.59669 7.1202 5.1336C7.25714 5.67301 7.47007 6.17485 7.76149 6.64746C8.05374 7.11757 8.41696 7.51503 8.84699 7.83317C9.28119 8.15464 9.79472 8.31413 10.3951 8.31413C10.7483 8.31413 11.0915 8.249 11.4238 8.11373C11.7553 7.98013 12.0317 7.80144 12.2471 7.581Z" fill="#FAFAFA"/>
</svg>
