<svg width="18" height="18" viewBox="0 0 18 18" fill="none" xmlns="http://www.w3.org/2000/svg">
<path d="M18 3H0V15.0001H18V3Z" fill="#338AF3"/>
<path d="M12.375 9.34375H5.625C5.625 9.80975 6.03084 10.1875 6.49684 10.1875H6.46875C6.46875 10.6535 6.84647 11.0312 7.31254 11.0312C7.31254 11.4972 7.69025 11.875 8.15632 11.875H9.84382C10.3098 11.875 10.6876 11.4973 10.6876 11.0312C11.1536 11.0312 11.5314 10.6535 11.5314 10.1875H11.5033C11.9691 10.1875 12.375 9.80975 12.375 9.34375Z" fill="#FFDA44"/>
<path d="M11.3372 8.24023C11.3372 9.53064 10.2911 10.5768 9.00062 10.5768C7.71017 10.5768 6.66406 9.53068 6.66406 8.24023" fill="#338AF3"/>
<path d="M11.3179 8.02141L10.3715 8.40458L10.8754 9.19352L9.84776 9.02428L9.71754 9.91778L9.00172 9.26063L8.28586 9.91778L8.15568 9.02428L7.12799 9.19345L7.63192 8.40454L6.68555 8.02141L7.63196 7.63824L7.12799 6.84936L8.15565 7.01857L8.2859 6.125L9.00172 6.78221L9.71757 6.125L9.84776 7.01857L10.8755 6.84936L10.3715 7.63827L11.3179 8.02141Z" fill="#FFDA44"/>
</svg>
