<svg width="18" height="14" viewBox="0 0 18 14" fill="none" xmlns="http://www.w3.org/2000/svg">
<path d="M9.00025 1.75C4.37956 1.75 0.26213 6.55294 0.0888824 6.75768C-0.0296275 6.89718 -0.0296275 7.10193 0.0888824 7.24216C0.192381 7.3644 1.70587 9.12162 3.88833 10.5211L6.23881 8.17063C6.08581 7.81063 6.00031 7.41538 6.00031 6.99991C6.00031 5.34544 7.34579 3.99996 9.00025 3.99996C9.41576 3.99996 9.81098 4.08546 10.171 4.23846L12.1037 2.30574C11.1617 1.96899 10.1275 1.75 9.00025 1.75Z" fill="#AAAAAA"/>
<path d="M17.9324 6.78636C17.8364 6.6476 16.2442 4.40663 13.5675 2.96216L15.6397 0.889939C15.786 0.743692 15.786 0.505933 15.6397 0.359686C15.4935 0.213438 15.2557 0.213438 15.1095 0.359686L2.35969 13.1095C2.21344 13.2558 2.21344 13.4935 2.35969 13.6398C2.43242 13.7133 2.52843 13.75 2.62444 13.75C2.72045 13.75 2.81643 13.7133 2.88994 13.6405L5.24115 11.2893C6.39988 11.8548 7.67786 12.25 8.99933 12.25C13.62 12.25 17.7375 7.44711 17.9107 7.24236C18.0194 7.1126 18.0292 6.92586 17.9324 6.78636ZM8.99933 10.0001C8.30708 10.0001 7.67786 9.75484 7.16937 9.36035L11.3595 5.17018C11.754 5.67867 11.9993 6.30792 11.9993 7.00014C11.9993 8.6546 10.6538 10.0001 8.99933 10.0001Z" fill="#AAAAAA"/>
</svg>
