<svg width="70" height="70" viewBox="0 0 70 70" fill="none" xmlns="http://www.w3.org/2000/svg">
<g clip-path="url(#clip0)">
<path d="M54.1803 59.2H15.8193C15.3976 59.2 15 58.8373 15 58.3195V29H55V58.3195C55 58.8371 54.6023 59.2 54.1803 59.2Z" stroke="url(#paint0_linear)" stroke-width="2"/>
<path d="M14 28H56V35H14V28Z" fill="#EFB025"/>
<path d="M60.2008 21.1611V29.2381C60.2008 30.1008 59.5286 30.7996 58.7004 30.7996H11.3C10.4718 30.7996 9.80078 30.1008 9.80078 29.2381V21.1611C9.80078 20.2985 10.4718 19.5996 11.3 19.5996H58.7004C59.5286 19.5996 60.2008 20.2985 60.2008 21.1611Z" fill="#FFC73B"/>
<path d="M33.5992 23.9188C33.2687 24.2835 32.9445 24.6534 32.628 25.0274C31.4486 26.4183 30.3691 27.8758 29.3932 29.3885C29.093 29.8537 28.8033 30.3237 28.5222 30.7992H18.1992C18.8023 29.5022 19.4636 28.2291 20.1801 26.9847C21.4794 24.727 22.9621 22.5607 24.6187 20.5062C25.0144 20.0156 25.4194 19.5308 25.8346 19.0535C26.0831 18.7657 26.3359 18.4819 26.5922 18.1992C27.5343 18.9685 28.4756 19.737 29.4181 20.5062C29.5641 20.6247 29.7101 20.7447 29.8557 20.8636C30.9679 21.7712 32.0801 22.6785 33.1919 23.5872C33.3282 23.6969 33.4633 23.8084 33.5992 23.9188Z" fill="#EFB025"/>
<path d="M36.4008 23.9188C36.7313 24.2835 37.0555 24.6534 37.372 25.0274C38.5514 26.4183 39.6309 27.8758 40.6068 29.3885C40.907 29.8537 41.1967 30.3237 41.4778 30.7992H51.8008C51.1977 29.5022 50.5364 28.2291 49.8199 26.9847C48.5206 24.727 47.0379 22.5607 45.3813 20.5062C44.9856 20.0156 44.5806 19.5308 44.1654 19.0535C43.9169 18.7657 43.6641 18.4819 43.4078 18.1992C42.4657 18.9685 41.5244 19.737 40.5819 20.5062C40.4359 20.6247 40.2899 20.7447 40.1443 20.8636C39.0321 21.7712 37.9199 22.6785 36.8081 23.5872C36.6718 23.6969 36.5367 23.8084 36.4008 23.9188Z" fill="#EFB025"/>
<path d="M49.0016 30.7992H38.6794C38.3994 30.3237 38.1086 29.8537 37.8085 29.3885C36.8328 27.8758 35.7522 26.4183 34.5742 25.0274C34.2566 24.6534 33.9324 24.2835 33.6016 23.9188C33.7378 23.8084 33.873 23.6976 34.0092 23.5872C35.122 22.6785 36.234 21.7701 37.3457 20.8636C37.4917 20.7447 37.6376 20.6247 37.7836 20.5062C38.7256 19.737 39.6679 18.9685 40.6091 18.1992C40.8653 18.4811 41.1181 18.7657 41.3666 19.0527C41.7824 19.5308 42.1878 20.0156 42.5823 20.5062C44.2386 22.5607 45.7211 24.727 47.021 26.9847C47.7373 28.2291 48.3986 29.5022 49.0016 30.7992Z" fill="#EFB025"/>
<path d="M35.0001 23.7532C34.6724 24.1339 34.3514 24.5203 34.038 24.911C32.8706 26.3641 31.8012 27.8868 30.8349 29.4676C27.7672 34.4821 25.7296 40.0838 24.8702 45.947C23.5786 44.234 22.3866 42.3806 21.3142 40.3987C19.4277 41.6292 17.5839 43.0366 15.8086 44.62C16.7203 38.4008 18.729 32.423 21.7125 26.9559C23.306 24.0343 25.1786 21.2584 27.3112 18.6698C27.5573 18.3691 27.8076 18.073 28.0614 17.7773C29.1388 18.7052 30.2155 19.633 31.2933 20.5609C32.3942 21.5091 33.4954 22.457 34.5967 23.4064C34.7313 23.5209 34.8651 23.6375 35.0001 23.7532Z" fill="#4629D3"/>
<path d="M54.1922 44.62C52.4169 43.0366 50.5731 41.6292 48.6867 40.3987C47.6142 42.3806 46.4222 44.234 45.1306 45.947C44.2712 40.0838 42.234 34.4821 39.1659 29.4676C38.1996 27.8868 37.1295 26.3641 35.9628 24.911C35.6483 24.5203 35.3272 24.1339 35 23.7532C35.1346 23.6375 35.2684 23.5217 35.4034 23.4064C36.5054 22.457 37.6067 21.508 38.7079 20.5609C39.7854 19.6319 40.8632 18.7052 41.9395 17.7773C42.1932 18.0719 42.4436 18.3691 42.6897 18.669C44.8226 21.2576 46.6952 24.0335 48.2894 26.9559C51.2722 32.423 53.2805 38.4008 54.1922 44.62Z" fill="#4629D3"/>
<path d="M30.9883 23.7539H39.0136V30.9414H30.9883V23.7539Z" fill="#7C65F4"/>
<path d="M47.6 26.7941L38.9498 29.3992C38.0336 27.7597 37.019 26.1804 35.9129 24.6732L35.3824 23.1127L35 21.9872L38.5156 20.1614L42.2907 18.1992C44.313 20.8841 46.0885 23.7631 47.6 26.7941Z" fill="#4629D3"/>
<path d="M34.9984 21.9867L34.6159 23.1122L34.0861 24.6729C32.9791 26.1801 31.9651 27.7596 31.0488 29.3992L22.3984 26.794C23.9094 23.7635 25.6852 20.8843 27.7074 18.1992L31.4834 20.1607L34.9984 21.9867Z" fill="#4629D3"/>
<path d="M49.5748 10.1639L35 17.366L37.7997 25.2008L53.3564 20.7453C55.3909 20.1626 56.5087 17.8906 55.7731 15.8325L54.4891 12.2401C53.754 10.182 51.4812 9.22199 49.5748 10.1639Z" fill="#4629D3"/>
<path d="M20.4249 10.1639L35 17.366L32.2002 25.2008L16.6437 20.7453C14.6091 20.1626 13.4913 17.8906 14.2269 15.8325L15.5105 12.2401C16.2461 10.182 18.5185 9.22199 20.4249 10.1639Z" fill="#4629D3"/>
<path d="M38.6325 19.6C38.3586 19.6 38.0899 19.4712 37.9319 19.2353C37.6847 18.8675 37.7973 18.3789 38.1838 18.1437C38.2981 18.0744 41.013 16.4307 44.13 15.2312C48.6235 13.5019 51.6242 13.5947 53.0477 15.507C53.3132 15.8633 53.2245 16.3568 52.8499 16.6091C52.4753 16.8613 51.957 16.7772 51.6919 16.4209C49.762 13.8288 41.7379 17.8593 39.0791 19.4758C38.9406 19.5599 38.7857 19.6 38.6325 19.6Z" fill="#FFC73B"/>
<path d="M31.369 19.6C31.2157 19.6 31.0609 19.5599 30.9223 19.4758C28.2636 17.8593 20.2396 13.8288 18.3097 16.4209C18.0442 16.7772 17.5259 16.8613 17.1513 16.6091C16.7771 16.3565 16.6883 15.8633 16.9539 15.507C18.3774 13.5947 21.3777 13.5019 25.8716 15.2312C28.9885 16.4303 31.7034 18.0744 31.8176 18.1437C32.2041 18.3789 32.3168 18.8675 32.07 19.2353C31.9112 19.4712 31.6429 19.6 31.369 19.6Z" fill="#FFC73B"/>
<path d="M37.1102 14H32.8914C31.7368 14 30.8008 15.0168 30.8008 16.2713V22.9287C30.8008 24.1832 31.7368 25.2 32.8914 25.2H37.1102C38.2647 25.2 39.2008 24.1832 39.2008 22.9287V16.2713C39.2008 15.0168 38.2647 14 37.1102 14Z" fill="#7C65F4"/>
<path d="M30.8008 30.8008H39.2008V60.2008H30.8008V30.8008Z" fill="#4629D3"/>
<path d="M30.8008 30.8008H39.2008V35.0008H30.8008V30.8008Z" fill="#4629D3"/>
<path d="M8.39922 11.8992L4.19922 7.69922" stroke="#4629D3" stroke-width="2" stroke-linecap="round"/>
<path d="M61.6008 11.8992L65.8008 7.69922" stroke="#4629D3" stroke-width="2" stroke-linecap="round"/>
<path d="M35 8.40078V2.80078" stroke="#4629D3" stroke-width="2" stroke-linecap="round"/>
<path d="M62.9989 24.4417L68.7109 26.0703" stroke="#4629D3" stroke-width="2" stroke-linecap="round"/>
<path d="M7.1105 24.4417L1.39844 26.0703" stroke="#4629D3" stroke-width="2" stroke-linecap="round"/>
</g>
<defs>
<linearGradient id="paint0_linear" x1="35" y1="28" x2="35" y2="60.2" gradientUnits="userSpaceOnUse">
<stop stop-color="#EFB025"/>
<stop offset="1" stop-color="#FFB800"/>
</linearGradient>
<clipPath id="clip0">
<rect width="70" height="70" fill="white"/>
</clipPath>
</defs>
</svg>
