<svg width="25" height="25" viewBox="0 0 25 25" fill="none" xmlns="http://www.w3.org/2000/svg">
<path d="M12.5 1C11.5548 1 10.699 1.43648 9.51705 2.0389C7.99387 2.81446 5.90581 3.87139 2.37287 4.62171L2 4.70828V5.06901C2 19.1356 12.2036 23.8539 12.3061 23.899L12.5149 24L12.7088 23.899C12.8113 23.8485 23 18.6666 23 5.06901V4.70828L22.6271 4.62171C19.0942 3.87139 17.0061 2.81446 15.483 2.0389C14.301 1.43648 13.4452 1 12.5 1Z" fill="#4629D3"/>
<path d="M10.1727 3.84762L10.1728 3.84753C11.2181 3.30708 11.8358 3 12.5 3C13.1642 3 13.7819 3.30708 14.8272 3.84753L14.8273 3.84762C16.137 4.52415 17.9534 5.45662 20.9999 6.12177C20.9794 11.8537 18.8598 15.7993 16.7397 18.321C15.6724 19.5906 14.6029 20.5012 13.7974 21.0957C13.1339 21.5854 12.6524 21.8584 12.5037 21.9392C12.2232 21.8009 10.2415 20.7759 8.26332 18.4717C6.14543 16.0048 4.0199 12.0597 4.00014 6.12178C7.0466 5.45662 8.86297 4.52415 10.1727 3.84762Z" fill="#4629D3" stroke="#FAFAFA"/>
</svg>
