<svg width="20" height="20" viewBox="0 0 20 20" fill="none" xmlns="http://www.w3.org/2000/svg">
<g clip-path="url(#clip0)">
<path d="M7.29199 14.6758V18.5408C7.29199 18.8108 7.46532 19.0499 7.72199 19.1349C7.78616 19.1558 7.85199 19.1658 7.91699 19.1658C8.11199 19.1658 8.30032 19.0741 8.42032 18.9108L10.6811 15.8341L7.29199 14.6758Z" fill="#4629D3"/>
<path d="M19.7366 0.115907C19.5449 -0.0199262 19.2932 -0.0382595 19.0849 0.0709072L0.334894 9.86257C0.113227 9.97841 -0.0176062 10.2151 0.000727169 10.4642C0.0198938 10.7142 0.185727 10.9276 0.421561 11.0084L5.63406 12.7901L16.7349 3.29841L8.14489 13.6476L16.8807 16.6334C16.9457 16.6551 17.0141 16.6667 17.0824 16.6667C17.1957 16.6667 17.3082 16.6359 17.4074 16.5759C17.5657 16.4792 17.6732 16.3167 17.7007 16.1342L19.9924 0.717574C20.0266 0.484241 19.9282 0.252574 19.7366 0.115907Z" fill="#4629D3"/>
</g>
<defs>
<clipPath id="clip0">
<rect width="20" height="20" fill="white"/>
</clipPath>
</defs>
</svg>
