<svg width="20" height="20" viewBox="0 0 20 20" fill="none" xmlns="http://www.w3.org/2000/svg">
<path fill-rule="evenodd" clip-rule="evenodd" d="M19.9369 8.88961C19.9053 8.60847 19.5775 8.39721 19.294 8.39721C18.3776 8.39721 17.5644 7.85912 17.2234 7.02694C16.875 6.1746 17.0996 5.18057 17.7826 4.55408C17.9976 4.35755 18.0237 4.02856 17.8434 3.80003C17.3744 3.20442 16.8413 2.6664 16.2592 2.20012C16.0313 2.01721 15.6968 2.04266 15.4992 2.26151C14.9031 2.92165 13.8325 3.16699 13.0051 2.82178C12.1442 2.45961 11.6012 1.58717 11.6544 0.650665C11.6718 0.356505 11.4569 0.100743 11.1636 0.0665863C10.4166 -0.0198089 9.6631 -0.0224878 8.9139 0.0606332C8.62398 0.0926314 8.409 0.342366 8.41874 0.632806C8.45134 1.56008 7.90186 2.41726 7.04944 2.76642C6.232 3.10031 5.16884 2.85705 4.57397 2.2028C4.37737 1.9873 4.04838 1.96081 3.81934 2.13933C3.22 2.60955 2.67492 3.14801 2.20157 3.73872C2.01694 3.96836 2.04411 4.30122 2.26125 4.49879C2.95725 5.12908 3.18198 6.13174 2.8204 6.9939C2.47519 7.81588 1.62165 8.34564 0.644519 8.34564C0.327439 8.33545 0.101591 8.54827 0.0669142 8.83655C-0.0210437 9.58784 -0.0220855 10.3533 0.0625981 11.1107C0.094001 11.3931 0.431768 11.6025 0.718338 11.6025C1.58914 11.5802 2.42518 12.1193 2.7759 12.9728C3.1255 13.8251 2.90076 14.8186 2.21675 15.4456C2.00281 15.6421 1.97564 15.9706 2.15595 16.1991C2.62059 16.7909 3.15377 17.3295 3.73793 17.7996C3.96705 17.9842 4.30043 17.9582 4.49904 17.7393C5.09733 17.0776 6.16793 16.8327 6.992 17.1786C7.85513 17.5396 8.39806 18.412 8.34492 19.349C8.32759 19.6433 8.54361 19.8995 8.83569 19.9332C9.21781 19.9777 9.60223 20 9.9877 20C10.3536 20 10.7196 19.9799 11.0855 19.9392C11.3755 19.9072 11.5903 19.6575 11.5805 19.3665C11.547 18.4397 12.0974 17.5826 12.9487 17.234C13.7717 16.8979 14.8304 17.1439 15.4253 17.7975C15.623 18.0125 15.9497 18.0385 16.18 17.8606C16.7782 17.3915 17.3222 16.8534 17.7978 16.2611C17.9823 16.032 17.9563 15.6986 17.738 15.5011C17.042 14.8708 16.8162 13.868 17.1778 13.0064C17.5177 12.1954 18.3395 11.6508 19.2235 11.6508L19.3472 11.654C19.6339 11.6773 19.8977 11.4565 19.9324 11.1638C20.0205 10.4118 20.0216 9.647 19.9369 8.88961ZM10.0156 13.3567C8.17623 13.3567 6.68005 11.8605 6.68005 10.0212C6.68005 8.18185 8.17623 6.6856 10.0156 6.6856C11.8549 6.6856 13.3511 8.18185 13.3511 10.0212C13.3511 11.8605 11.8549 13.3567 10.0156 13.3567Z" fill="#1D1A1A"/>
</svg>
