<svg width="20" height="20" viewBox="0 0 20 20" fill="none" xmlns="http://www.w3.org/2000/svg">
<g clip-path="url(#clip0)">
<path d="M20 3.79907C19.2639 4.12525 18.474 4.34646 17.6441 4.44522C18.4915 3.9378 19.1401 3.13296 19.4475 2.17689C18.6527 2.64679 17.7754 2.988 16.8405 3.17296C16.0919 2.37437 15.0271 1.87695 13.8461 1.87695C11.5803 1.87695 9.7431 3.71411 9.7431 5.97868C9.7431 6.29985 9.77935 6.61355 9.84935 6.91351C6.44 6.74227 3.41683 5.10884 1.39346 2.62679C1.03977 3.23169 0.838562 3.93652 0.838562 4.68891C0.838562 6.1124 1.56343 7.36841 2.66324 8.10325C1.99085 8.08077 1.35846 7.8958 0.804837 7.58835V7.63959C0.804837 9.62671 2.21957 11.2851 4.09546 11.6626C3.75176 11.7551 3.38935 11.8063 3.01441 11.8063C2.74948 11.8063 2.49327 11.7801 2.24206 11.7301C2.76444 13.361 4.27918 14.547 6.07386 14.5795C4.67036 15.6793 2.90069 16.333 0.978562 16.333C0.647386 16.333 0.321176 16.313 0 16.2767C1.81591 17.4428 3.97176 18.1226 6.28882 18.1226C13.8361 18.1226 17.9616 11.8713 17.9616 6.44985L17.9479 5.91871C18.754 5.34378 19.4513 4.62143 20 3.79907Z" fill="#FAFAFA"/>
</g>
<defs>
<clipPath id="clip0">
<rect width="20" height="20" fill="white"/>
</clipPath>
</defs>
</svg>
