<svg width="34" height="34" viewBox="0 0 34 34" fill="none" xmlns="http://www.w3.org/2000/svg">
<g clip-path="url(#clip0)">
<path d="M0.789854 34C0.598936 34 0.413206 33.9245 0.275465 33.7852C0.0938856 33.6016 0.0238478 33.3349 0.0920698 33.0856L2.30241 25.0141C0.926298 22.5257 0.200758 19.7107 0.201796 16.8532C0.205687 7.5602 7.76822 0 17.0604 0C21.5675 0.0018158 25.8024 1.75743 28.9855 4.94286C32.1681 8.12854 33.9201 12.3632 33.9188 16.8667C33.9146 26.1599 26.3521 33.7206 17.0604 33.7206C17.0604 33.7206 17.0534 33.7206 17.0532 33.7206C14.3391 33.7196 11.6483 33.0581 9.2525 31.8052L0.97325 33.9764C0.91255 33.9922 0.850813 34 0.789854 34Z" fill="#E5E5E5"/>
<path d="M0.789062 33.2757L3.078 24.9171C1.66609 22.4707 0.923431 19.6957 0.924469 16.8526C0.928101 7.9586 8.16586 0.722656 17.0596 0.722656C21.3755 0.724472 25.4266 2.40434 28.4729 5.45332C31.5191 8.50231 33.1961 12.5552 33.1945 16.8656C33.1906 25.7594 25.9518 32.9964 17.0596 32.9964C17.0591 32.9964 17.0599 32.9964 17.0596 32.9964H17.0526C14.3523 32.9953 11.6991 32.318 9.3425 31.0327L0.789062 33.2757ZM9.7386 28.1126L10.2286 28.4029C12.2872 29.6247 14.6475 30.2708 17.0544 30.2721H17.0596C24.451 30.2721 30.4669 24.2572 30.4701 16.8646C30.4714 13.282 29.0779 9.91318 26.5459 7.37911C24.0136 4.84503 20.6469 3.44868 17.0646 3.44713C9.66727 3.44713 3.65153 9.4613 3.64868 16.8537C3.64764 19.387 4.35632 21.8539 5.69897 23.9887L6.01804 24.4961L4.66293 29.4434L9.7386 28.1126Z" fill="white"/>
<path d="M1.35156 32.7134L3.56139 24.6437C2.19798 22.2821 1.48126 19.6028 1.48204 16.8586C1.48541 8.27248 8.47285 1.28711 17.0582 1.28711C21.2252 1.28893 25.1362 2.91069 28.0764 5.8541C31.0175 8.7975 32.6362 12.71 32.6346 16.8708C32.631 25.4572 25.6433 32.4433 17.059 32.4433C17.0582 32.4433 17.0592 32.4433 17.059 32.4433H17.052C14.4453 32.4423 11.8837 31.7881 9.60876 30.5481L1.35156 32.7134Z" fill="#64B161"/>
<path d="M0.789062 33.2757L3.078 24.9171C1.66609 22.4707 0.923431 19.6957 0.924469 16.8526C0.928101 7.9586 8.16586 0.722656 17.0596 0.722656C21.3755 0.724472 25.4266 2.40434 28.4729 5.45332C31.5191 8.50231 33.1961 12.5552 33.1945 16.8656C33.1906 25.7594 25.9518 32.9964 17.0596 32.9964C17.0591 32.9964 17.0599 32.9964 17.0596 32.9964H17.0526C14.3523 32.9953 11.6991 32.318 9.3425 31.0327L0.789062 33.2757ZM9.7386 28.1126L10.2286 28.4029C12.2872 29.6247 14.6475 30.2708 17.0544 30.2721H17.0596C24.451 30.2721 30.4669 24.2572 30.4701 16.8646C30.4714 13.282 29.0779 9.91318 26.5459 7.37911C24.0136 4.84503 20.6469 3.44868 17.0646 3.44713C9.66727 3.44713 3.65153 9.4613 3.64868 16.8537C3.64764 19.387 4.35632 21.8539 5.69897 23.9887L6.01804 24.4961L4.66293 29.4434L9.7386 28.1126Z" fill="white"/>
<path fill-rule="evenodd" clip-rule="evenodd" d="M13.0295 10.1084C12.7276 9.43711 12.4095 9.42362 12.1221 9.41195C11.8871 9.40183 11.6181 9.40235 11.3496 9.40235C11.0809 9.40235 10.6441 9.50351 10.2747 9.90688C9.90503 10.3102 8.86328 11.2856 8.86328 13.2692C8.86328 15.2531 10.3081 17.1698 10.5097 17.4391C10.7112 17.7081 13.2987 21.9088 17.3965 23.5248C20.8021 24.868 21.495 24.6008 22.2343 24.5336C22.9736 24.4664 24.6195 23.5583 24.9554 22.6169C25.2916 21.6756 25.2916 20.8688 25.1906 20.7C25.0897 20.5321 24.821 20.4312 24.4179 20.2297C24.0148 20.0281 22.0327 19.0525 21.6631 18.9182C21.2934 18.7835 21.0247 18.7166 20.756 19.1202C20.487 19.5233 19.715 20.4312 19.4797 20.7C19.2444 20.9695 19.0092 21.0032 18.6061 20.8014C18.203 20.5993 16.9044 20.1739 15.3641 18.8004C14.1657 17.7319 13.3563 16.4121 13.1211 16.0085C12.886 15.6054 13.1172 15.4061 13.2982 15.1859C13.6243 14.7893 14.1714 14.0762 14.3057 13.8075C14.4401 13.5382 14.3729 13.3029 14.2723 13.1011C14.1714 12.8996 13.3877 10.9058 13.0295 10.1084Z" fill="white"/>
</g>
<defs>
<clipPath id="clip0">
<rect width="34" height="34" fill="white"/>
</clipPath>
</defs>
</svg>
