<svg width="20" height="20" viewBox="0 0 20 20" fill="none" xmlns="http://www.w3.org/2000/svg">
<path d="M19.2205 4.17115C18.4985 3.31295 17.1656 2.96289 14.6201 2.96289H5.37974C2.77594 2.96289 1.42045 3.33554 0.701226 4.24921C0 5.14005 0 6.45263 0 8.26928V11.7318C0 15.2512 0.832 17.0381 5.37974 17.0381H14.6201C16.8276 17.0381 18.0508 16.7292 18.8422 15.9719C19.6537 15.1952 20 13.9271 20 11.7318V8.26928C20 6.35347 19.9457 5.03315 19.2205 4.17115ZM12.8401 10.4786L8.64406 12.6715C8.55026 12.7206 8.44768 12.7449 8.34523 12.7449C8.22923 12.7449 8.11348 12.7137 8.01097 12.6516C7.81793 12.5346 7.70006 12.3254 7.70006 12.0997V7.72786C7.70006 7.50257 7.81761 7.29354 8.01026 7.1765C8.20297 7.05947 8.44265 7.05147 8.64258 7.15534L12.8386 9.33418C13.0521 9.44502 13.1861 9.66541 13.1865 9.90586C13.1867 10.1465 13.0532 10.3672 12.8401 10.4786Z" fill="#FAFAFA"/>
</svg>
